<svg width="30" height="23" viewBox="0 0 30 23" fill="none" xmlns="http://www.w3.org/2000/svg">
<path d="M12.12 10.2152C12.195 9.8347 12.36 9.50034 12.57 9.22363C13.02 8.57798 13.785 8.24362 14.82 8.23209C15.495 8.23209 16.11 8.46268 16.545 8.79704C16.965 9.15446 17.25 9.65023 17.25 10.146H19.95C19.92 9.60411 19.785 9.10834 19.5 8.64716C19.275 8.20903 18.93 7.81703 18.48 7.4942C16.305 5.94924 12.27 6.16831 10.425 7.9208C8.49 9.84623 8.445 13.2129 10.41 15.1383C12.225 16.8562 16.2 17.0983 18.36 15.5649C18.825 15.2766 19.2 14.9192 19.5 14.5042C19.74 14.0891 19.905 13.651 19.92 13.1783H17.25C17.25 13.4204 17.145 13.6395 17.01 13.8355C16.875 14.0545 16.695 14.2275 16.5 14.3773C16.005 14.6771 15.42 14.8385 14.79 14.8385C14.25 14.827 13.8 14.7463 13.455 14.5733C13.0661 14.4053 12.7564 14.147 12.57 13.8355C11.82 12.7978 11.94 11.3566 12.12 10.2152ZM15 0C6.75 0 0 5.18829 0 11.5295C0.795 26.8292 29.25 26.8177 30 11.5295C30 5.18829 23.25 0 15 0ZM15 20.7532C8.385 20.7532 3 16.6141 3 11.5295C3.66 -0.703302 26.34 -0.703302 27 11.5295C27 16.6141 21.615 20.7532 15 20.7532Z" fill="#7D7A74"/>
</svg>
